<svg width="112" height="53" viewBox="0 0 112 53" fill="none" xmlns="http://www.w3.org/2000/svg">
<g clip-path="url(#clip0_1_3687)">
<path d="M3.53816 9.96625C3.53676 9.99323 3.53676 10.0203 3.53816 10.0473C3.53816 10.0203 3.53816 9.99325 3.53816 9.96625Z" fill="#33535E"/>
<path d="M3.61671 46.5088C3.60488 46.494 3.59395 46.4785 3.58398 46.4623L3.61671 46.5088Z" fill="#33535E"/>
<path d="M3.02148 5.98915L3.09138 11.1842C3.05976 19.9929 4.2563 23.7871 8.916 24.5179C14.2713 25.3517 12.7436 18.9195 12.7436 18.9195C12.7436 18.9195 16.4048 18.6258 17.2003 21.3381C17.4898 22.3339 17.5731 28.3779 17.7711 30.4185C17.2319 29.5746 15.8656 28.4556 12.0846 27.8581C4.42106 26.6479 3.26445 22.1195 3.26445 22.1195C3.22285 24.2074 3.72377 28.8353 10.6318 30.3223C14.8788 31.2354 16.7277 32.908 17.5215 34.0591C16.7676 33.1038 15.0252 31.7856 10.9729 31.0379C4.1032 29.767 3.3693 25.3399 3.3693 25.3399C2.94992 31.7536 6.58282 34.5924 9.80467 36.4912C13.0265 38.39 21.191 44.4341 14.8671 48.2975C8.02733 52.4714 4.01 47.0772 3.61559 46.5101C8.1588 53.3305 16.9573 50.3059 18.2204 44.2535C19.4835 38.201 9.37531 33.1443 9.37531 33.1443C16.7709 33.9747 18.1638 39.2457 18.1638 39.2457C18.1638 39.2457 18.1206 37.1005 18.0923 35.2186C18.1039 35.2676 18.1089 35.2946 18.1089 35.2946L18.0923 34.1384C18.0923 33.1527 18.0923 31.9443 18.0723 32.6194L17.9342 22.5989C17.9342 22.5989 18.069 17.1338 11.5754 15.8274C5.00185 14.5041 3.48912 11.6973 3.17791 10.504L3.11634 5.98578L3.02148 5.98915ZM10.7965 18.5532C10.7965 18.5532 11.5903 22.2022 9.35035 21.9811C7.11037 21.76 4.58914 19.1676 4.75223 15.5675C4.75223 15.5725 6.45468 17.8578 10.7965 18.5532Z" fill="white"/>
<path d="M3.2793 40.267L3.59716 46.5018L3.67537 40.3109L3.2793 40.267Z" fill="#263F47"/>
<path d="M2.98168 2.87226L0.888672 5.05511L3.04096 7.17785L5.13398 4.99499L2.98168 2.87226Z" fill="#D4A017"/>
<path d="M3.45044 37.7902L1.35742 39.9731L3.50971 42.0958L5.60273 39.913L3.45044 37.7902Z" fill="#D4A017"/>
<path d="M26.9434 22.7063C26.9434 21.6207 27.289 20.8066 27.9803 20.2638C28.6715 19.721 29.5746 19.4496 30.6896 19.4496H40.8913C41.0697 19.4496 41.1589 19.5401 41.1589 19.721C41.1589 20.1733 41.1143 20.6257 41.0251 21.078C40.9359 21.5303 40.7798 21.9374 40.5568 22.2992C40.3561 22.661 40.0662 22.9551 39.6872 23.1812C39.3304 23.4074 38.8621 23.5204 38.2823 23.5204H31.4589V28.8803H40.2223C40.4007 28.8803 40.4899 28.9708 40.4899 29.1517C40.4899 29.5588 40.4565 29.9885 40.3896 30.4408C40.345 30.8705 40.2223 31.2776 40.0216 31.662C39.8433 32.0239 39.5868 32.3292 39.2523 32.578C38.9179 32.8267 38.4719 32.9511 37.9144 32.9511H31.4589V40.3125C31.4589 40.8778 31.3139 41.3415 31.0241 41.7033C30.7565 42.0652 30.4108 42.3479 29.9872 42.5514C29.5635 42.7549 29.0952 42.9019 28.5823 42.9924C28.0918 43.0829 27.6346 43.1507 27.2109 43.1959C27.0326 43.1959 26.9434 43.1168 26.9434 42.9585V22.7063Z" fill="#D4A017"/>
<path d="M42.7171 43.2299C42.5387 43.2299 42.483 43.1507 42.5499 42.9924L49.9754 22.7063C50.2207 22.073 50.5106 21.5529 50.845 21.1458C51.1795 20.7161 51.5475 20.3769 51.9488 20.1281C52.3502 19.8793 52.7739 19.7097 53.2199 19.6193C53.6659 19.5062 54.123 19.4496 54.5913 19.4496C54.8588 19.4496 55.0484 19.4836 55.1599 19.5514C55.2714 19.5966 55.3606 19.721 55.4275 19.9246L64.0237 42.9924C64.1129 43.1507 64.0571 43.2299 63.8564 43.2299C63.5889 43.2299 63.3213 43.2299 63.0537 43.2299C62.7861 43.2525 62.5297 43.2638 62.2844 43.2638C61.9053 43.2638 61.5262 43.2412 61.1471 43.1959C60.7903 43.1507 60.4447 43.0602 60.1102 42.9246C59.798 42.7889 59.5082 42.5853 59.2406 42.3139C58.973 42.0425 58.75 41.6807 58.5716 41.2284L56.5313 36.3095H49.2395L47.5337 41.2284C47.3776 41.7033 47.1323 42.0765 46.7978 42.3479C46.4633 42.6192 46.0954 42.8228 45.694 42.9585C45.2926 43.0942 44.8578 43.1733 44.3895 43.1959C43.9436 43.2186 43.4976 43.2299 43.0516 43.2299H42.7171ZM55.2602 32.2387L52.8854 25.5898L50.5106 32.2387H55.2602Z" fill="#D4A017"/>
<path d="M81.9901 34.783V22.7402C81.9901 22.0391 82.1239 21.4737 82.3915 21.044C82.6814 20.6143 83.027 20.2864 83.4284 20.0603C83.8521 19.8341 84.3092 19.6871 84.7998 19.6193C85.3127 19.5288 85.7921 19.4836 86.2381 19.4836C86.4165 19.4836 86.5057 19.574 86.5057 19.755V40.3125C86.5057 41.0135 86.3496 41.5563 86.0374 41.9408C85.7475 42.3252 85.3796 42.6192 84.9336 42.8228C84.5099 43.0037 84.0639 43.1168 83.5956 43.162C83.1497 43.2072 82.7594 43.2299 82.425 43.2299C82.2689 43.2299 82.1351 43.162 82.0236 43.0263L71.7549 27.5234V40.6517C71.7549 41.1945 71.6323 41.6355 71.387 41.9747C71.164 42.2913 70.863 42.5514 70.4839 42.7549C70.1271 42.9359 69.7257 43.0602 69.2798 43.1281C68.8338 43.1959 68.4101 43.2299 68.0087 43.2299C67.8303 43.2299 67.7411 43.1394 67.7411 42.9585V22.7402C67.7411 22.0844 67.8526 21.5529 68.0756 21.1458C68.3209 20.7161 68.622 20.3769 68.9787 20.1281C69.3355 19.8793 69.7369 19.7097 70.1829 19.6193C70.6512 19.5288 71.0971 19.4836 71.5208 19.4836C71.6992 19.4836 71.8441 19.5627 71.9556 19.721L81.9901 34.783Z" fill="#D4A017"/>
<path d="M104.757 34.783V22.7402C104.757 22.0391 104.891 21.4737 105.159 21.044C105.448 20.6143 105.794 20.2864 106.195 20.0603C106.619 19.8341 107.076 19.6871 107.567 19.6193C108.08 19.5288 108.559 19.4836 109.005 19.4836C109.184 19.4836 109.273 19.574 109.273 19.755V40.3125C109.273 41.0135 109.117 41.5563 108.804 41.9408C108.515 42.3252 108.147 42.6192 107.701 42.8228C107.277 43.0037 106.831 43.1168 106.363 43.162C105.917 43.2072 105.527 43.2299 105.192 43.2299C105.036 43.2299 104.902 43.162 104.791 43.0263L94.522 27.5234V40.6517C94.522 41.1945 94.3994 41.6355 94.1541 41.9747C93.9311 42.2913 93.6301 42.5514 93.251 42.7549C92.8942 42.9359 92.4928 43.0602 92.0468 43.1281C91.6009 43.1959 91.1772 43.2299 90.7758 43.2299C90.5974 43.2299 90.5082 43.1394 90.5082 42.9585V22.7402C90.5082 22.0844 90.6197 21.5529 90.8427 21.1458C91.088 20.7161 91.389 20.3769 91.7458 20.1281C92.1026 19.8793 92.504 19.7097 92.9499 19.6193C93.4182 19.5288 93.8642 19.4836 94.2879 19.4836C94.4663 19.4836 94.6112 19.5627 94.7227 19.721L104.757 34.783Z" fill="#D4A017"/>
</g>
<defs>
<clipPath id="clip0_1_3687">
<rect width="110.847" height="51.8644" fill="white" transform="translate(0.576172 0.56781)"/>
</clipPath>
</defs>
</svg>
